<?xml version="1.0" encoding="UTF-8"?>
<svg version="1.1" xmlns="http://www.w3.org/2000/svg" width="1254" height="1254">
<path d="M0 0 C413.82 0 827.64 0 1254 0 C1254 413.82 1254 827.64 1254 1254 C840.18 1254 426.36 1254 0 1254 C0 840.18 0 426.36 0 0 Z " fill="#FDFDFD" transform="translate(0,0)"/>
<path d="M0 0 C1.02643782 -0.00205263 2.05287564 -0.00410527 3.11041763 -0.0062201 C6.56010737 -0.01188791 10.00975715 -0.01043311 13.45945072 -0.00901413 C15.95371851 -0.01159789 18.44798589 -0.01461109 20.9422527 -0.01801753 C27.08505328 -0.02524284 33.22784135 -0.0277901 39.37064569 -0.02834659 C46.72925162 -0.02926119 54.08784953 -0.03593164 61.446452 -0.04269341 C79.23190146 -0.0587464 97.01735005 -0.06465603 114.80280545 -0.06944216 C123.2189434 -0.07177895 131.63508066 -0.07538171 140.05121808 -0.07913754 C168.86845193 -0.09197283 197.68568541 -0.10269171 226.50292206 -0.10614014 C228.31161052 -0.10636177 230.12029898 -0.10658355 231.92898745 -0.10680549 C233.74201213 -0.10702613 235.5550368 -0.10724661 237.36806148 -0.10746694 C241.0052191 -0.10790949 244.64237672 -0.1083566 248.27953434 -0.10880661 C249.63223782 -0.1089707 249.63223782 -0.1089707 251.01226865 -0.1091381 C280.24575879 -0.11276781 309.47922411 -0.12868473 338.71270474 -0.15199697 C369.6299836 -0.17660681 400.54724827 -0.19031353 431.4645372 -0.19150805 C434.86018122 -0.1916795 438.25582522 -0.19189493 441.65146923 -0.19214249 C442.48755415 -0.19219826 443.32363907 -0.19225402 444.1850599 -0.19231148 C457.6259839 -0.19346096 471.06688239 -0.20447428 484.50779778 -0.21902954 C498.02477268 -0.23341375 511.54171497 -0.23662068 525.05869543 -0.22858956 C533.08271583 -0.22414227 541.10663078 -0.22795774 549.13063727 -0.24382807 C555.13188766 -0.25476486 561.13301844 -0.24990878 567.13427342 -0.2390562 C569.55492646 -0.2371002 571.97559015 -0.24017307 574.39622825 -0.24890056 C590.83506335 -0.30439779 606.33267089 0.23225968 621.71923161 6.69392776 C622.97232121 7.21164749 622.97232121 7.21164749 624.25072575 7.7398262 C648.39065657 18.07468385 666.67298625 35.90130808 678.71923161 59.13142776 C679.20263004 60.05697464 679.68602848 60.98252151 680.18407536 61.93611526 C686.5261556 74.9287052 688.86934869 88.73663818 688.86640263 103.07503128 C688.87007931 104.04810761 688.873756 105.02118395 688.87754411 106.02374744 C688.88851665 109.26928176 688.89241371 112.51478399 688.89623356 115.76033401 C688.90250275 118.09333267 688.90914996 120.42633034 688.91614628 122.75932693 C688.93712375 130.40418689 688.94753843 138.04904691 688.95751286 145.69392776 C688.96156189 148.32870367 688.96567886 150.96347947 688.96986294 153.59825516 C688.98671781 164.55484093 689.00135553 175.51142466 689.00861168 186.46802139 C689.01052133 189.3053678 689.01244171 192.1427142 689.01439762 194.98006058 C689.01488136 195.6852044 689.0153651 196.39034822 689.0158635 197.11686003 C689.02417138 208.5502822 689.04952806 219.98360001 689.0819783 231.41697657 C689.11506118 243.16939952 689.13306116 254.9217694 689.13625592 266.67423916 C689.1386074 273.26738923 689.14758199 279.86037384 689.17271709 286.45347977 C689.19596952 292.65219062 689.20024226 298.85062667 689.18995571 305.04936981 C689.18945966 307.32295648 689.19580029 309.59655656 689.20951176 311.87010193 C689.22719627 314.97633919 689.22014102 318.08158634 689.2069788 321.18782425 C689.22343267 322.53375326 689.22343267 322.53375326 689.24021894 323.90687275 C689.16889641 330.88912858 687.37213287 336.16282616 682.68407536 341.40877151 C682.01505192 341.95662308 681.34602848 342.50447464 680.65673161 343.06892776 C679.64932926 343.91777542 679.64932926 343.91777542 678.62157536 344.78377151 C673.26466575 348.57870748 665.95012256 347.84256206 659.71923161 347.13142776 C653.74029696 344.70458491 649.67603698 340.79863807 646.71923161 335.13142776 C645.87990285 332.37441482 645.59318603 329.90922853 645.58894634 327.03390884 C645.585322 326.22171387 645.58169765 325.40951889 645.57796347 324.57271194 C645.57903172 323.68595779 645.58009998 322.79920364 645.5812006 321.88557816 C645.57837932 320.93915955 645.57555804 319.99274094 645.57265127 319.01764297 C645.56430123 315.83811508 645.56296664 312.65862199 645.56151676 309.47908401 C645.55684872 307.20242591 645.55170517 304.92576874 645.54612064 302.6491127 C645.53483513 297.74095624 645.52640301 292.83280587 645.52000141 287.92464066 C645.50932235 280.15826023 645.48907654 272.39192338 645.46688175 264.62556839 C645.45942642 261.96641929 645.45198817 259.30727015 645.44459438 256.64812088 C645.44274382 255.98353564 645.44089325 255.31895039 645.43898661 254.6342262 C645.41806122 247.06965822 645.39923403 239.50508552 645.38134098 231.9405098 C645.37888371 230.90340453 645.37888371 230.90340453 645.37637679 229.84534764 C645.35012778 218.65692516 645.33146444 207.4684994 645.31474908 196.28005922 C645.2972927 184.78082769 645.26821982 173.28166845 645.22985971 161.78248692 C645.20881737 155.33116527 645.19333638 148.87993519 645.19105244 142.42857742 C645.18889968 136.35466303 645.17296605 130.28093908 645.14666271 124.20708275 C645.13949164 121.98357634 645.13735806 119.76004681 645.14076519 117.53653145 C645.23312657 101.60150255 645.23312657 101.60150255 641.71923161 86.13142776 C641.34282536 84.98287308 640.96641911 83.83431839 640.57860661 82.65095901 C637.82226515 75.92509764 634.56597301 70.54598825 629.71923161 65.13142776 C629.12368473 64.44306839 628.52813786 63.75470901 627.91454411 63.04549026 C619.38540292 53.80853654 605.50214398 45.61349244 592.63903493 45.03842976 C589.99469962 44.99896027 587.35204633 44.99308597 584.70741367 44.99720669 C583.6857615 44.99485446 582.66410933 44.99250223 581.611498 44.99007872 C578.16607538 44.98338775 574.72069046 44.98384697 571.27526188 44.98425674 C568.7888316 44.98095818 566.30240186 44.97723263 563.81597281 44.97311527 C557.68489454 44.96413906 551.55382757 44.95986748 545.42274364 44.9575963 C538.07992115 44.95463382 530.73710824 44.94593612 523.39429078 44.93718202 C505.64556976 44.91633825 487.89684708 44.90586784 470.14811667 44.89705241 C461.75137927 44.89284572 453.35464258 44.88762375 444.95790578 44.88236788 C416.21416226 44.86447755 387.47041853 44.84948169 358.72667027 44.84204769 C356.92213361 44.84157293 355.11759696 44.84109705 353.31306031 44.84062003 C352.41817375 44.84038365 351.52328719 44.84014728 350.60128286 44.83990374 C346.06735691 44.83870254 341.53343098 44.83748709 336.99950504 44.83626175 C336.09973436 44.8360216 335.19996367 44.83578145 334.2729272 44.83553402 C305.10209721 44.8276416 275.93130789 44.80421101 246.76049566 44.77170581 C215.91864073 44.73740131 185.0768096 44.71769597 154.23493528 44.71440345 C150.84858194 44.71398591 147.46222861 44.71350635 144.07587528 44.71298027 C143.24206139 44.71285708 142.4082475 44.71273389 141.54916653 44.71260696 C128.13542513 44.7102757 114.72173099 44.69461983 101.30800643 44.67413842 C87.82219939 44.65387382 74.33644907 44.64840613 60.85062963 44.65790906 C52.84150889 44.66312156 44.83257708 44.65725844 36.82348356 44.63537439 C30.83856606 44.62025889 24.8538604 44.62611858 18.86893207 44.64004491 C16.4509626 44.64242736 14.03297494 44.63806453 11.61503333 44.62621626 C-9.86488672 44.52749404 -26.61234907 47.57974203 -42.55029964 63.20564651 C-50.55894987 71.49510882 -58.39494374 84.50415535 -58.41072023 96.34391344 C-58.41424865 97.18356427 -58.41777707 98.0232151 -58.42141241 98.8883099 C-58.42021463 99.80752902 -58.41901686 100.72674815 -58.41778278 101.6738224 C-58.42043461 102.65687691 -58.42308644 103.63993142 -58.42581862 104.65277547 C-58.43352627 107.97292941 -58.43407136 111.29304646 -58.43466854 114.61320877 C-58.43868221 117.00731783 -58.44312027 119.40142622 -58.4479481 121.79553378 C-58.45867209 127.70217189 -58.46467218 133.60880427 -58.46865697 139.51544975 C-58.47366606 146.58889083 -58.48439367 153.66232039 -58.49513871 160.73575466 C-58.52077133 177.83507582 -58.53580549 194.93440146 -58.54864918 212.03373631 C-58.55290398 217.69794955 -58.55746972 223.36216246 -58.56223249 229.02637529 C-58.5874945 259.14581863 -58.60954178 289.26526252 -58.62196064 319.38471413 C-58.62488195 326.36359916 -58.62784948 333.34248418 -58.63086605 340.32136917 C-58.63123696 341.18840545 -58.63160787 342.05544172 -58.63199002 342.94875182 C-58.64414215 371.0522465 -58.67508028 399.1556785 -58.71678757 427.25914375 C-58.75958994 456.15322814 -58.78620358 485.04727942 -58.79143535 513.94139637 C-58.79217578 518.02392177 -58.79308646 522.10644713 -58.79409313 526.18897247 C-58.79428375 526.99243613 -58.79447436 527.79589979 -58.79467075 528.62371083 C-58.79818204 541.5454424 -58.8184695 554.4670954 -58.84488977 567.38879814 C-58.87105713 580.38298136 -58.87875224 593.37707396 -58.86778848 606.37127976 C-58.86181963 614.0869556 -58.86968114 621.80232365 -58.89761932 629.5179528 C-58.91695659 635.28623589 -58.91002027 641.05425319 -58.89305015 646.82253273 C-58.89024852 649.15105111 -58.89585755 651.47959851 -58.91086309 653.80807023 C-58.98601478 666.23222963 -58.72717496 676.78697614 -53.28076839 688.13142776 C-52.88145937 688.99179433 -52.48215035 689.8521609 -52.07074106 690.73859918 C-48.97701599 697.1131153 -44.20396862 702.11371585 -39.28076839 707.13142776 C-38.73807308 707.69861526 -38.19537777 708.26580276 -37.63623714 708.85017776 C-26.85573518 719.11212394 -11.17088742 723.6192752 3.3572216 723.50895119 C4.37367863 723.51331151 5.39013566 723.51767183 6.43739441 723.52216429 C9.82915154 723.53307603 13.22049836 723.52271732 16.61225224 723.51237869 C19.07427607 723.51583686 21.53629836 723.5206025 23.99831742 723.52656043 C29.3439857 723.53646676 34.68953406 723.53708417 40.03519726 723.52941895 C47.98464995 723.51805122 55.93402618 723.52388329 63.8834784 723.53304387 C78.08367216 723.54882877 92.28382539 723.54747667 106.48402299 723.53880713 C118.91281968 723.53125649 131.34160153 723.5292922 143.77040005 723.53287506 C144.59526119 723.53310422 145.42012234 723.53333337 146.26997928 723.53356947 C149.618505 723.53450351 152.96703072 723.53545871 156.31555644 723.53644876 C187.72213755 723.54562392 219.12869288 723.53730875 250.53527002 723.52115807 C278.42399695 723.50692544 306.31268277 723.50819202 334.20140934 723.52254105 C365.54651002 723.53861456 396.8915879 723.54496922 428.23669213 723.53570426 C431.58000004 723.53474213 434.92330795 723.53380361 438.26661587 723.53287506 C439.08980128 723.53263783 439.91298669 723.5324006 440.76111711 723.53215618 C453.17850525 723.52874734 465.59587689 723.532728 478.01326275 723.54031372 C492.13826699 723.54889968 506.26322442 723.54672975 520.38822285 723.53047149 C528.28825924 723.52167765 536.18819419 723.52106577 544.0882279 723.53241001 C549.99346183 723.53995264 555.89860674 723.53174205 561.80383053 723.51748629 C564.18798646 723.51414219 566.57215602 723.51582416 568.95630316 723.52311365 C591.58523139 723.60919363 591.58523139 723.60919363 612.71923161 716.13142776 C613.60223942 715.64931839 614.48524723 715.16720901 615.39501286 714.67049026 C629.45941258 706.38358254 638.04291234 693.56328133 642.71923161 678.13142776 C643.06234379 677.06975891 643.40545597 676.00809006 643.75896549 674.91424942 C645.37653767 668.32823283 644.97737616 661.50644761 644.94286442 654.77034378 C644.94233954 653.21728392 644.94277741 651.66422348 644.94410038 650.11116409 C644.94542933 646.77892203 644.94105086 643.44675401 644.93249607 640.11452293 C644.92006735 634.83958897 644.92708768 629.56479086 644.93792057 624.28985977 C644.96632606 609.29422198 644.97881441 594.29870236 644.94921207 579.30305862 C644.93300712 571.01162992 644.93819339 562.72049914 644.96700835 554.42910141 C644.98127396 550.04739443 644.98438298 545.66630784 644.96078587 541.28462791 C644.93859002 537.16304594 644.94424125 533.04242679 644.97077084 528.92087936 C644.97552379 527.4136833 644.97013989 525.90641367 644.95353985 524.39930153 C644.86307822 515.60215259 645.36275618 508.76871267 651.71923161 502.13142776 C657.66284184 497.02789127 663.59985152 496.67035575 671.19188786 496.71736526 C677.70107953 497.48145642 680.82656651 501.08934174 685.09423161 505.69392776 C688.21133597 510.36958432 688.97002536 514.13206651 688.97992802 519.73048782 C688.98375356 520.38021726 688.98757911 521.02994669 688.99152058 521.6993649 C689.00181081 523.86918513 688.99786589 526.03873874 688.99388981 528.2085762 C688.99823895 529.76792011 689.00342277 531.32726189 689.00937748 532.88660049 C689.02276884 537.12080598 689.02334513 541.35492218 689.02081418 545.58914471 C689.01974282 549.13436384 689.02463295 552.67956504 689.0294196 556.22478032 C689.04051898 564.60366996 689.04095222 572.9825148 689.03490543 581.36140823 C689.02888836 589.96870663 689.04111772 598.57584061 689.0624755 607.18311095 C689.08018418 614.59574089 689.08607767 622.00831898 689.08283776 629.42096925 C689.08103669 633.83745807 689.08354055 638.25383008 689.0975523 642.67029953 C689.11027461 646.83676194 689.10805296 651.00297244 689.09514141 655.16943169 C689.0928056 656.68455026 689.09540024 658.19968734 689.10376453 659.71478462 C689.17399069 673.44495372 687.93244101 687.45726723 682.59423161 700.25642776 C682.29347721 700.99667191 681.99272282 701.73691605 681.68285465 702.49959183 C671.54401303 726.58933508 653.87273489 745.24252456 630.71923161 757.13142776 C629.79497379 757.61353714 628.87071598 758.09564651 627.91845036 758.59236526 C608.46234173 768.1042406 587.60750703 768.42972409 566.45008183 768.40558243 C563.98363392 768.41003954 561.51718744 768.41535513 559.05074304 768.42145115 C553.70448964 768.43263964 548.35828417 768.43766619 543.01202297 768.43712997 C535.06123234 768.43633345 527.11048438 768.4469203 519.1597052 768.45954554 C503.30225407 768.48422735 487.44481346 768.49306196 471.58734576 768.49808203 C470.76705499 768.49834321 469.94676421 768.49860438 469.10161614 768.49887347 C468.2796 768.49913375 467.45758385 768.49939402 466.61065812 768.49966218 C457.48360849 768.50274984 448.35656175 768.50925648 439.22951412 768.51587486 C411.64013308 768.53551669 384.05075514 768.55192451 356.46136665 768.5547514 C355.57973761 768.55484546 354.69810856 768.55493952 353.78976348 768.55503643 C350.21721582 768.55541489 346.64466815 768.55577889 343.07212048 768.55613941 C340.38344593 768.55641112 337.69477139 768.5566878 335.00609684 768.55696487 C334.11765393 768.5570529 333.22921103 768.55714092 332.31384561 768.55723161 C304.41110129 768.56013575 276.50842631 768.58222366 248.60570621 768.61848831 C217.22533852 768.65927218 185.84501807 768.68291039 154.46462244 768.68321091 C151.11417861 768.68330772 147.7637348 768.68347444 144.41329098 768.68369102 C143.17593287 768.6837572 143.17593287 768.6837572 141.91357763 768.6838247 C128.67617521 768.68494152 115.43884262 768.70230574 102.20146264 768.72551034 C88.88123922 768.74842589 75.56110951 768.75253117 62.24087358 768.73796105 C54.34263802 768.72984929 46.44469895 768.73535839 38.54649974 768.76114189 C32.62675909 768.77889584 26.70724046 768.77008 20.7874965 768.7514968 C18.40932177 768.74802463 16.03111574 768.75281407 13.652982 768.76720124 C-19.98714018 768.95742748 -49.04379978 760.30920156 -73.90576839 736.81892776 C-94.36331671 715.48462738 -104.47066217 687.48091109 -104.41219616 658.153965 C-104.41424879 657.18461216 -104.41630143 656.21525933 -104.41841626 655.21653217 C-104.42406417 651.97306324 -104.42263174 648.72963706 -104.42121029 645.48616409 C-104.42379519 643.13525087 -104.4268087 640.78433808 -104.43021369 638.4334259 C-104.43742776 632.65293664 -104.4399856 626.87245844 -104.44054275 621.09196501 C-104.44145861 614.16534203 -104.44813275 607.23872753 -104.45488957 600.31210821 C-104.4709289 583.5731876 -104.47685047 566.83426792 -104.48163832 550.095341 C-104.48397631 542.17270865 -104.48757918 534.25007701 -104.4913337 526.32744522 C-104.50416729 499.19349324 -104.5148867 472.05954165 -104.5183363 444.9255867 C-104.51855793 443.22314894 -104.51877971 441.52071118 -104.51900165 439.81827343 C-104.51922229 438.11178899 -104.51944277 436.40530455 -104.5196631 434.69882011 C-104.52010564 431.27547709 -104.52055276 427.85213407 -104.52100277 424.42879105 C-104.52111216 423.58000475 -104.52122155 422.73121845 -104.52133426 421.85671136 C-104.52496406 394.34113972 -104.54088221 366.82559444 -104.56419313 339.31003289 C-104.58880889 310.200926 -104.60250994 281.09183416 -104.60370421 251.98271656 C-104.60387566 248.7850844 -104.60409109 245.58745225 -104.60433865 242.3898201 C-104.60439441 241.60250587 -104.60445018 240.81519164 -104.60450764 240.0040194 C-104.60565655 227.35376026 -104.61666483 214.70352824 -104.6312257 202.05327825 C-104.64561742 189.32963646 -104.6488126 176.60602932 -104.64078572 163.88238162 C-104.63673198 156.99427516 -104.63739212 150.10625165 -104.65184307 143.21815681 C-104.66460452 136.90516388 -104.6633646 130.59233008 -104.65125236 124.27933729 C-104.64929927 122.00273596 -104.65235569 119.72612326 -104.66109672 117.44953787 C-104.78205026 83.80106381 -96.26054993 55.23923979 -72.90576839 30.38142776 C-52.8989977 11.51518556 -27.70526268 -0.0516435 0 0 Z " fill="#161716" transform="translate(331.2807683944702,247.86857223510742)"/>
<path d="M0 0 C6.81474979 3.54134006 11.65042199 8.88276534 14.16015625 16.125 C14.5780353 18.66421408 14.92285583 21.15724331 15.203125 23.7109375 C15.38801064 25.2736111 15.57299265 26.83627329 15.75805664 28.39892578 C15.85361847 29.22749084 15.9491803 30.05605591 16.04763794 30.909729 C17.95826091 47.40549307 20.23076454 63.83275284 22.72265625 80.25 C24.7303761 93.48747783 26.68886211 106.72205692 28.41015625 120 C28.98766015 124.37579396 29.5712156 128.7507314 30.16015625 133.125 C30.28310059 134.04974121 30.40604492 134.97448242 30.53271484 135.92724609 C30.86442963 138.35152458 31.2243217 140.76933445 31.59765625 143.1875 C31.78199219 144.43660156 31.96632813 145.68570313 32.15625 146.97265625 C33.73456502 151.92868823 36.93215724 154.37342107 41.30029297 157.046875 C42.46834473 157.65015625 43.63639648 158.2534375 44.83984375 158.875 C45.48033661 159.20980377 46.12082947 159.54460754 46.7807312 159.88955688 C48.15056368 160.60471928 49.52250626 161.31585222 50.8963623 162.02325439 C54.53880453 163.89956638 58.16512248 165.80660091 61.79296875 167.7109375 C62.51669678 168.08995209 63.2404248 168.46896667 63.98608398 168.85946655 C70.0316897 172.03423423 75.98710872 175.35196804 81.91015625 178.75 C90.24952548 183.52388932 98.67689192 188.11319102 107.16015625 192.625 C118.78389518 198.80979395 130.28146488 205.19280761 141.70849609 211.73388672 C143.97950655 213.02249631 146.26249171 214.28472356 148.5546875 215.53515625 C149.2058252 215.89424072 149.85696289 216.2533252 150.52783203 216.62329102 C152.18691669 217.53652208 153.85101385 218.44063174 155.515625 219.34375 C159.48901889 222.02006848 162.53337542 225.5879982 164.16015625 230.125 C164.99797057 238.19447476 165.49112856 246.43263072 160.6796875 253.3515625 C160.17824219 253.93679688 159.67679688 254.52203125 159.16015625 255.125 C158.71027344 255.66898438 158.26039063 256.21296875 157.796875 256.7734375 C153.78160349 260.52932454 149.31006668 260.70287045 143.99145508 260.58105469 C125.39719843 259.68410659 106.89750288 256.72411562 88.48266602 254.11376953 C76.30642738 252.39285788 64.11389757 250.82532543 51.91015625 249.3125 C50.56710922 249.14599945 50.56710922 249.14599945 49.19692993 248.97613525 C44.18509133 248.35565222 39.17282294 247.73875565 34.16015625 247.125 C32.43933316 258.13499959 30.82886942 269.16032601 29.22265625 280.1875 C27.58817631 291.4056441 25.94069024 302.62145586 24.25247192 313.83164978 C23.43421891 319.27361396 22.63259531 324.71776169 21.84375 330.1640625 C21.63477408 331.60286581 21.42578979 333.04166791 21.21679688 334.48046875 C20.90404712 336.63441849 20.59212628 338.78847418 20.2824707 340.94287109 C19.22301083 348.3058304 18.10543227 355.62016139 16.57348633 362.90283203 C15.73841113 367.39240941 15.44727887 371.96051232 15.125 376.51171875 C14.44819347 383.85443113 12.05795934 390.15455483 6.28515625 395 C5.64835938 395.55429687 5.0115625 396.10859375 4.35546875 396.6796875 C-2.41492621 401.13706496 -10.04040026 400.69902446 -17.83984375 400.125 C-23.33726726 398.97325106 -28.16817109 395.29652908 -31.83984375 391.125 C-34.23861792 386.89053879 -35.35217075 383.29846291 -35.97265625 378.484375 C-36.22208984 376.63199219 -36.22208984 376.63199219 -36.4765625 374.7421875 C-36.63769531 373.46601562 -36.79882812 372.18984375 -36.96484375 370.875 C-37.29786843 368.32774249 -37.6336608 365.78084478 -37.97265625 363.234375 C-38.18752686 361.54779785 -38.18752686 361.54779785 -38.40673828 359.82714844 C-38.69484753 357.16497268 -38.69484753 357.16497268 -39.83984375 355.125 C-40.2167486 352.87457949 -40.54666352 350.61624053 -40.85546875 348.35546875 C-40.95145355 347.6595462 -41.04743835 346.96362366 -41.14633179 346.24661255 C-41.46416575 343.93568487 -41.77693796 341.62409967 -42.08984375 339.3125 C-42.31136993 337.69746635 -42.53321714 336.08247671 -42.75537109 334.4675293 C-43.91533893 326.01484401 -45.05068018 317.55895096 -46.17578125 309.1015625 C-46.39416286 307.46589597 -46.61258687 305.8302351 -46.83105469 304.19458008 C-47.2424263 301.11425728 -47.64873533 298.03332933 -48.05175781 294.9519043 C-49.11558412 286.90906961 -50.36234266 278.92582733 -51.81018066 270.94294739 C-52.82366541 265.32903436 -53.57303901 259.74060168 -54.1875 254.0703125 C-54.31797893 250.81282714 -54.31797893 250.81282714 -55.83984375 248.125 C-63.0085155 247.57820543 -70.12108907 248.49072398 -77.21484375 249.4375 C-78.61283203 249.61442383 -78.61283203 249.61442383 -80.0390625 249.79492188 C-85.61781616 250.51535695 -91.17931536 251.32557658 -96.73867798 252.18061829 C-108.41116466 253.97095474 -120.10873841 255.40421488 -131.83984375 256.75 C-134.66036613 257.07444215 -137.48075157 257.39990867 -140.30078125 257.72860718 C-142.03225823 257.93038407 -143.76401755 258.1297577 -145.49609375 258.32632446 C-146.66011719 258.46184219 -146.66011719 258.46184219 -147.84765625 258.60009766 C-148.5245752 258.67765289 -149.20149414 258.75520813 -149.89892578 258.83511353 C-151.86669047 259.09507897 -151.86669047 259.09507897 -153.859375 259.64291382 C-157.10654642 260.43334107 -160.3912522 260.3917625 -163.71484375 260.4375 C-164.40964844 260.46650391 -165.10445312 260.49550781 -165.8203125 260.52539062 C-171.01451252 260.58897311 -173.86004657 259.40213269 -177.83984375 256.125 C-180.08984375 253.125 -180.08984375 253.125 -181.83984375 250.125 C-182.19691406 249.53976562 -182.55398438 248.95453125 -182.921875 248.3515625 C-185.31018369 242.55864354 -184.66450767 235.12741718 -183.03515625 229.1953125 C-178.54694851 219.01172391 -167.93715825 214.9534368 -158.51086426 210.00579834 C-155.39819423 208.37097487 -152.2945688 206.71918847 -149.19140625 205.06640625 C-148.56609009 204.73350586 -147.94077393 204.40060547 -147.29650879 204.05761719 C-141.5071833 200.96584448 -135.79023754 197.75266852 -130.08984375 194.5 C-122.28560313 190.0499804 -114.43469615 185.70175293 -106.52734375 181.4375 C-98.11450345 176.89974648 -89.7083034 172.35588937 -81.38671875 167.65234375 C-78.01765796 165.7548008 -74.60512297 163.9624282 -71.16796875 162.19140625 C-69.24592897 161.16958072 -67.32405133 160.14745014 -65.40234375 159.125 C-64.49524658 158.67503662 -63.58814941 158.22507324 -62.65356445 157.76147461 C-61.80882568 157.30393799 -60.96408691 156.84640137 -60.09375 156.375 C-59.34424072 155.98828125 -58.59473145 155.6015625 -57.82250977 155.203125 C-52.7670313 149.90424153 -52.29579398 140.871041 -51.3984375 133.85546875 C-51.27826767 132.96876999 -51.15809784 132.08207123 -51.0342865 131.16850281 C-50.62810467 128.15501835 -50.23396294 125.14008434 -49.83984375 122.125 C-49.53332853 119.82495069 -49.22617377 117.52498653 -48.91845703 115.22509766 C-47.733002 106.34071237 -46.56038601 97.45463698 -45.39477539 88.56762695 C-43.47989553 73.98294865 -41.50176302 59.41839094 -39.17628479 44.89265442 C-37.92687318 37.01914244 -36.96769764 29.13245328 -36.19038391 21.19868469 C-35.37880145 13.3950684 -31.53801592 8.31682068 -25.71484375 3.25 C-18.38428846 -2.16823652 -8.69829791 -2.68008079 0 0 Z " fill="#161616" transform="translate(766.83984375,464.875)"/>
<path d="M0 0 C0.95109858 -0.00538554 1.90219716 -0.01077108 2.88211691 -0.01631981 C6.05945299 -0.03059264 9.23637206 -0.02349719 12.41372681 -0.01637268 C14.69569737 -0.02207661 16.97766508 -0.02904096 19.2596283 -0.03717041 C25.45181049 -0.05511495 31.64385107 -0.05393086 37.83605146 -0.04822803 C43.00753285 -0.04513785 48.17898696 -0.05122678 53.35046446 -0.05726677 C66.2495519 -0.07211788 79.14855068 -0.06849495 92.04763658 -0.05640347 C103.23796567 -0.04647378 114.42812935 -0.05940841 125.61843292 -0.08333766 C137.12111703 -0.1077487 148.62370536 -0.11693213 160.1264168 -0.11068493 C166.57930837 -0.10731493 173.03206332 -0.10973346 179.48493576 -0.12693596 C185.55398241 -0.14240897 191.62271346 -0.13844517 197.69174767 -0.11963081 C199.91652682 -0.11594588 202.14132937 -0.11905057 204.36608696 -0.1295166 C207.40856452 -0.14273441 210.44999849 -0.13117128 213.49243164 -0.11352539 C214.80583245 -0.1279329 214.80583245 -0.1279329 216.14576662 -0.14263147 C223.59378249 -0.05405415 229.59085019 1.9682459 235.24819946 6.88768005 C241.00367852 13.65883189 241.98816922 18.7386704 241.78726196 27.63768005 C241.1956351 32.99581011 239.26875575 35.80747833 235.37319946 39.38768005 C234.56882446 40.15080505 233.76444946 40.91393005 232.93569946 41.70018005 C226.46927645 45.95855618 221.36203608 46.82652165 213.77090454 46.76863098 C212.82247838 46.77331095 211.87405222 46.77799093 210.89688587 46.78281271 C207.7286906 46.79474914 204.56092896 46.7853106 201.39273071 46.77586365 C199.11736804 46.77992994 196.84200735 46.78527214 194.56665039 46.79179382 C188.39318879 46.80546628 182.21987765 46.80016896 176.04641342 46.79065657 C169.58478135 46.78305967 163.12316212 46.79010567 156.66152954 46.79481506 C145.11552933 46.80062205 133.56960603 46.79130085 122.02361786 46.77603705 C111.56166065 46.76263437 101.09980331 46.76496262 90.6378479 46.77879333 C78.47946741 46.79485927 66.32116527 46.80081788 54.16277218 46.79195654 C47.73009277 46.7872802 41.29748212 46.78665421 34.86480713 46.79656601 C28.8171466 46.80523369 22.76967462 46.79921713 16.72203445 46.78188324 C14.50286802 46.77791738 12.28368571 46.77905413 10.0645256 46.78567123 C7.03463449 46.79387263 4.00534707 46.78358167 0.97549438 46.76863098 C0.09795911 46.77532315 -0.77957617 46.78201531 -1.68370342 46.78891027 C-10.13097988 46.70809876 -15.71282232 43.97285734 -21.89242554 38.1884613 C-26.19197894 33.72428536 -26.82201922 30.0005129 -27.00180054 23.95018005 C-26.76237302 15.51275451 -24.64980743 10.99207755 -18.73617554 4.96580505 C-12.73646142 0.47713005 -7.25214547 -0.04952574 0 0 Z " fill="#7B7B7B" transform="translate(391.6268005371094,425.61231994628906)"/>
<path d="M0 0 C0.64735572 -0.00538554 1.29471143 -0.01077108 1.96168399 -0.01631981 C4.11721074 -0.03055502 6.27211949 -0.02350702 8.42767334 -0.01637268 C9.97882071 -0.02207877 11.52996388 -0.02904396 13.08110046 -0.03717041 C17.28588864 -0.05509512 21.49046804 -0.05393421 25.69528294 -0.04822803 C29.2113961 -0.04513377 32.7274693 -0.05123159 36.24357677 -0.05726677 C44.54407125 -0.07130946 52.84446282 -0.06975414 61.1449585 -0.05836487 C69.69169147 -0.04689641 78.23811018 -0.06093839 86.78480172 -0.08776134 C94.13535904 -0.10996177 101.48581803 -0.11654559 108.83640647 -0.11068493 C113.22083035 -0.107323 117.60505303 -0.10967882 121.98944855 -0.12693596 C126.11658029 -0.14247136 130.24324933 -0.13837707 134.37036324 -0.11963081 C135.87874581 -0.11596242 137.38716315 -0.11900197 138.89551353 -0.1295166 C149.28688833 -0.19638059 158.24779311 0.45397013 166.24700928 7.70018005 C171.10142982 13.10415764 172.96540791 18.55156633 172.72357178 25.76268005 C171.77775588 31.75879592 168.94631371 37.29399884 164.37200928 41.32518005 C158.96984494 44.96337236 155.04265634 46.76088551 148.46716309 46.78881836 C147.4716282 46.79901336 147.4716282 46.79901336 146.45598149 46.80941433 C144.24521161 46.82831479 142.03499914 46.82595426 139.82415771 46.82347107 C138.23359977 46.83245324 136.64304836 46.84266254 135.05250549 46.85400391 C130.7403083 46.88046467 126.42828979 46.88753579 122.11601925 46.88945127 C119.41864868 46.89158649 116.72132326 46.89799652 114.02396393 46.90594292 C104.60430528 46.93368563 95.18477383 46.94595006 85.76507568 46.94358826 C77.00010331 46.94178724 68.23568563 46.97342019 59.47085357 47.02081925 C51.93345731 47.06012023 44.39624177 47.0761368 36.85874391 47.07422203 C32.36241535 47.07345911 27.86657973 47.08189836 23.3703537 47.11375618 C19.13801457 47.14292613 14.90663522 47.1429529 10.67426109 47.12120628 C9.12716193 47.11808404 7.58000168 47.12506669 6.03300667 47.14328766 C-3.09194834 47.24374214 -10.5574262 46.67486905 -17.69049072 40.38768005 C-23.60372585 32.94390242 -24.66926285 25.78611698 -23.69049072 16.38768005 C-21.20134783 9.63909867 -16.00180279 5.3130212 -9.91724014 1.77519131 C-6.33732092 0.23581605 -3.88186621 0.00817376 0 0 Z " fill="#7B7B7B" transform="translate(388.69049072265625,584.6123199462891)"/>
<path d="M0 0 C0.98673706 -0.00997513 1.97347412 -0.01995026 2.9901123 -0.03022766 C4.06138367 -0.03089233 5.13265503 -0.03155701 6.23638916 -0.03224182 C7.37358398 -0.04056534 8.51077881 -0.04888885 9.68243408 -0.0574646 C13.44296695 -0.0815653 17.20332631 -0.09033731 20.96392822 -0.09693909 C23.58081108 -0.10590593 26.1976934 -0.11502778 28.8145752 -0.1242981 C34.30219162 -0.1416522 39.78976394 -0.14852165 45.27740479 -0.15138245 C51.60377229 -0.15501374 57.92965348 -0.18488358 64.25587249 -0.22678703 C70.35824505 -0.26577896 76.46038263 -0.27697731 82.56287384 -0.2781086 C85.15117274 -0.28230879 87.73947213 -0.29473487 90.32769012 -0.31562614 C93.9539335 -0.3425639 97.57884589 -0.33770612 101.20513916 -0.32521057 C102.2683136 -0.34004486 103.33148804 -0.35487915 104.42687988 -0.37016296 C112.60723051 -0.29013421 118.14608368 2.00183445 124.35455322 7.30149841 C127.71668406 11.25361855 129.87633899 13.90701438 129.97955322 19.27415466 C130.06205322 20.17263123 130.14455322 21.07110779 130.22955322 21.99681091 C130.63386551 28.65954046 129.92451222 33.01172021 125.83502197 38.36399841 C121.83070176 42.48634069 116.65603264 46.04544308 110.77708244 46.41116905 C109.48244418 46.4195275 109.48244418 46.4195275 108.16165161 46.42805481 C107.16924973 46.43665527 106.17684784 46.44525574 105.15437317 46.45411682 C104.06656052 46.45837677 102.97874786 46.46263672 101.85797119 46.46702576 C100.71131485 46.47520325 99.56465851 46.48338074 98.383255 46.49180603 C94.57942224 46.51666633 90.77562684 46.53317901 86.97174072 46.54759216 C85.02340521 46.55557768 85.02340521 46.55557768 83.03570938 46.56372452 C77.57462854 46.58495651 72.11355984 46.60408526 66.65244865 46.61534691 C58.84110011 46.63156363 51.03025074 46.66468659 43.21909034 46.72174776 C37.7191471 46.76054628 32.21933677 46.77999147 26.71926033 46.78526747 C23.43849695 46.78890868 20.15838612 46.80332411 16.87774277 46.83337021 C13.21061231 46.86503595 9.54473409 46.86505521 5.87750244 46.85765076 C4.80183517 46.87405609 3.72616791 46.89046143 2.61790466 46.90736389 C-5.58431926 46.83976393 -11.53537957 44.75922187 -17.39544678 38.89915466 C-22.04185074 31.39342519 -23.17277919 25.14162692 -22.02044678 16.27415466 C-19.85589146 10.34808323 -15.21812678 5.73193331 -10.02044678 2.27415466 C-6.54829881 0.67567589 -3.81371844 0.02077089 0 0 Z " fill="#7B7B7B" transform="translate(387.02044677734375,743.7258453369141)"/>
<path d="M0 0 C0.33 0 0.66 0 1 0 C1.53350857 3.41481264 2.04958186 6.83203896 2.5625 10.25 C2.71396484 11.21808594 2.86542969 12.18617188 3.02148438 13.18359375 C3.16005859 14.11816406 3.29863281 15.05273438 3.44140625 16.015625 C3.57232666 16.87446289 3.70324707 17.73330078 3.83813477 18.61816406 C4.0007082 21.01042114 3.71976511 22.72802578 3 25 C-0.95471426 21.04528574 -0.04707061 14.37740882 -0.06591797 9.0769043 C-0.06093814 6.05094393 -0.03545812 3.02575986 0 0 Z " fill="#343435" transform="translate(790,554)"/>
<path d="M0 0 C0 0.66 0 1.32 0 2 C-0.99 2 -1.98 2 -3 2 C-3 2.66 -3 3.32 -3 4 C-4.40682757 4.97138094 -5.81976519 5.93538756 -7.265625 6.84765625 C-10.03030717 8.68455093 -12.48152029 10.84130311 -15 13 C-14.72254342 9.67052107 -14.30844554 8.29937362 -11.875 5.9375 C-3.06451613 0 -3.06451613 0 0 0 Z " fill="#202021" transform="translate(601,680)"/>
<path d="M0 0 C2.36917948 3.55376922 2.59170756 5.96771779 3.125 10.1875 C3.20991699 10.85789307 3.29483398 11.52828613 3.38232422 12.21899414 C3.9407893 16.85695112 4.19029297 21.33782213 4 26 C3.67 26 3.34 26 3 26 C3 24.02 3 22.04 3 20 C2.34 20 1.68 20 1 20 C0.202163 13.30386804 -0.12910853 6.74233419 0 0 Z " fill="#383738" transform="translate(779,478)"/>
<path d="M0 0 C4.52615993 3.67832017 8.39424999 7.41086363 12 12 C9 12 9 12 6.73828125 10.13671875 C5.93777344 9.32847656 5.13726562 8.52023437 4.3125 7.6875 C3.50425781 6.88699219 2.69601562 6.08648438 1.86328125 5.26171875 C0 3 0 3 0 0 Z " fill="#262726" transform="translate(254,978)"/>
<path d="M0 0 C0.33 0 0.66 0 1 0 C1 5.28 1 10.56 1 16 C0.34 16 -0.32 16 -1 16 C-1 17.98 -1 19.96 -1 22 C-1.33 22 -1.66 22 -2 22 C-2.29883729 14.52906777 -1.15925507 7.36955011 0 0 Z " fill="#4A4B4B" transform="translate(722,550)"/>
<path d="M0 0 C0.66 0 1.32 0 2 0 C2.12036664 5.77759884 1.8320582 11.27959989 1 17 C0.67 17 0.34 17 0 17 C-0.19601608 15.25093341 -0.38147403 13.50068154 -0.5625 11.75 C-0.66691406 10.77546875 -0.77132812 9.8009375 -0.87890625 8.796875 C-0.99070215 6.21475036 -0.73061437 4.44620515 0 2 C0 1.34 0 0.68 0 0 Z " fill="#454445" transform="translate(780,831)"/>
<path d="M0 0 C0.99 0.33 1.98 0.66 3 1 C1.02 3.31 -0.96 5.62 -3 8 C-3.66 7.01 -4.32 6.02 -5 5 C-3.35 3.35 -1.7 1.7 0 0 Z " fill="#848484" transform="translate(374,748)"/>
<path d="M0 0 C2.76276177 0.52268466 5.3260876 1.10869587 8 2 C8.33 2.99 8.66 3.98 9 5 C6.03 4.01 3.06 3.02 0 2 C0 1.34 0 0.68 0 0 Z " fill="#282828" transform="translate(290,1005)"/>
<path d="M0 0 C0.33 0 0.66 0 1 0 C2.35384615 7.38461538 2.35384615 7.38461538 0.5625 10.5 C0.046875 10.995 -0.46875 11.49 -1 12 C-1.14285714 3.42857143 -1.14285714 3.42857143 0 0 Z " fill="#515151" transform="translate(728,509)"/>
</svg>
