<?xml version="1.0" encoding="UTF-8"?>
<svg version="1.1" xmlns="http://www.w3.org/2000/svg" width="1774" height="887">
<path d="M0 0 C585.42 0 1170.84 0 1774 0 C1774 292.71 1774 585.42 1774 887 C1188.58 887 603.16 887 0 887 C0 594.29 0 301.58 0 0 Z " fill="#FDFDFD" transform="translate(0,0)"/>
<path d="M0 0 C1.03221292 -0.00453111 2.06442584 -0.00906223 3.12791795 -0.01373065 C6.57378389 -0.02635308 10.01949135 -0.02475565 13.46537781 -0.02310181 C15.94129133 -0.02908836 18.41720298 -0.0358942 20.89311218 -0.04345703 C26.91292637 -0.05927814 32.93267867 -0.06556481 38.95250789 -0.06668179 C43.84830017 -0.06763403 48.74407958 -0.07175309 53.63986778 -0.07808304 C67.53728152 -0.09568438 81.43466444 -0.10492356 95.3320894 -0.10342209 C96.0803861 -0.10334218 96.8286828 -0.10326227 97.59965515 -0.10317993 C98.34887126 -0.10309817 99.09808737 -0.10301641 99.870007 -0.10293217 C112.00949047 -0.10211943 124.14884982 -0.12125702 136.28829739 -0.14945666 C148.76959957 -0.17822041 161.25084129 -0.19199507 173.73217744 -0.19026911 C180.73285461 -0.18960645 187.73340163 -0.19504441 194.73404884 -0.21662521 C201.31933935 -0.23679647 207.90440254 -0.23612774 214.48972321 -0.22159195 C216.90233703 -0.21950356 219.31496806 -0.22420649 221.72755241 -0.23631287 C225.02978898 -0.25180629 228.33108371 -0.24242927 231.63330078 -0.22705078 C233.05366834 -0.24248147 233.05366834 -0.24248147 234.50273019 -0.25822389 C245.98394624 -0.14066471 257.1483733 4.56608412 265.6985321 12.23226929 C272.96562262 19.85788798 278.60199886 29.56556798 278.65429688 40.27046204 C278.66502983 41.78241905 278.66502983 41.78241905 278.67597961 43.32492065 C278.67866852 44.42477295 278.68135742 45.52462524 278.68412781 46.6578064 C278.69069901 47.82078751 278.6972702 48.98376862 278.70404053 50.18199158 C278.72375907 54.03208479 278.73543077 57.88213909 278.7454071 61.73226929 C278.74948263 63.04626772 278.75355816 64.36026615 278.75775719 65.71408272 C278.77679194 71.94777796 278.79102917 78.18146145 278.79936916 84.41518015 C278.80914959 91.60608304 278.8354969 98.79667879 278.87587005 105.98747343 C278.90602936 111.55022153 278.92083764 117.11288151 278.92415017 122.67570978 C278.92649998 125.99647313 278.93742512 129.3168325 278.96061134 132.63752556 C278.98487133 136.34115186 278.9840617 140.04396928 278.97709656 143.74765015 C278.99631165 145.39439224 278.99631165 145.39439224 279.01591492 147.07440186 C278.96484487 154.50851893 278.96484487 154.50851893 276.60275269 158.4249115 C273.87839241 160.82021966 272.860208 161.22745397 269.19462585 161.64242554 C265.50712585 161.26742554 265.50712585 161.26742554 262.63212585 158.89242554 C259.86688332 155.4765377 259.3822229 153.96836482 259.37582397 149.67694092 C259.36981171 148.22609604 259.36981171 148.22609604 259.36367798 146.74594116 C259.3642067 145.6810144 259.36473541 144.61608765 259.36528015 143.51889038 C259.36006851 141.84060654 259.36006851 141.84060654 259.35475159 140.12841797 C259.34738447 137.69153722 259.3420442 135.25464972 259.33846092 132.81776047 C259.33130905 128.95918048 259.31565097 125.10072867 259.29711914 121.2421875 C259.2445965 110.26868563 259.19625463 99.29525034 259.18119812 88.32162476 C259.17190138 81.61481696 259.14176326 74.90837465 259.09987831 68.20167923 C259.08757049 65.64609827 259.08244664 63.09047214 259.08467674 60.53486252 C259.08703222 56.95367148 259.0648411 53.37339522 259.03715515 49.79232788 C259.04375656 48.73954651 259.05035797 47.68676514 259.05715942 46.6020813 C258.97511664 40.12593696 257.85135765 35.78598949 254.50712585 30.26742554 C254.21648097 29.57587561 253.92583609 28.88432568 253.62638378 28.17181969 C252.2194038 25.77787244 251.00341189 25.42260521 248.50712585 24.26742554 C247.84837166 23.91995911 247.18961747 23.57249268 246.51090103 23.21449697 C240.60490667 20.29769696 235.70825185 19.70005236 229.17752075 19.77294922 C228.17500513 19.76812039 227.1724895 19.76329156 226.13959461 19.7583164 C222.80016518 19.74709798 219.46151044 19.76432525 216.12211609 19.78158569 C213.72000421 19.77943854 211.31789334 19.77555893 208.91578674 19.77008057 C203.08085834 19.76140609 197.24617773 19.77123736 191.41127687 19.78978117 C184.60992714 19.81061451 177.80862583 19.81040706 171.0072502 19.80943601 C158.86889587 19.80843612 146.73064716 19.82672158 134.59233093 19.85580444 C122.82538428 19.88398275 111.05853054 19.89814559 99.29154968 19.89682007 C98.20416041 19.8967002 98.20416041 19.8967002 97.09480368 19.89657791 C96.37110573 19.8964972 95.64740778 19.89641649 94.90177959 19.89633334 C81.48770324 19.89495208 68.07366621 19.90674191 54.65960262 19.92463977 C49.92336048 19.93066093 45.18712559 19.93279751 40.45088005 19.93370438 C34.07244371 19.93571518 27.69410472 19.94794067 21.31570053 19.96803665 C18.97601353 19.97387213 16.63631532 19.97634033 14.29662132 19.97518158 C11.10089359 19.97419789 7.90543719 19.98553379 4.70974731 20 C3.32398653 19.99535419 3.32398653 19.99535419 1.91023058 19.99061453 C-6.16560629 20.0509058 -13.00082712 21.04556163 -19.49287415 26.26742554 C-23.91426696 30.8051708 -27.7375822 34.97283652 -27.75014305 41.5735569 C-27.75659194 42.43226942 -27.76304084 43.29098193 -27.76968515 44.17571604 C-27.76658795 45.11441676 -27.76349074 46.05311748 -27.76029968 47.02026367 C-27.7648308 48.02117959 -27.76936191 49.02209552 -27.77403033 50.05334222 C-27.78672046 53.41723034 -27.78505096 56.7809575 -27.78340149 60.14486694 C-27.78938398 62.5528484 -27.79618888 64.96082794 -27.80375671 67.36880493 C-27.81961567 73.23775807 -27.82586654 79.10667329 -27.82698147 84.97564347 C-27.82793207 89.74854245 -27.83204298 94.52142818 -27.83838272 99.29432297 C-27.85599923 112.83307245 -27.86522138 126.37179023 -27.86372177 139.91055126 C-27.86364186 140.64046333 -27.86356195 141.37037539 -27.86347961 142.12240601 C-27.86339785 142.85321213 -27.86331609 143.58401825 -27.86323185 144.33697002 C-27.86241965 156.17022479 -27.8815397 168.00335206 -27.90975635 179.83656998 C-27.93851526 191.99342738 -27.95229487 204.15022269 -27.9505688 216.30711496 C-27.94990575 223.12952771 -27.95535976 229.95180694 -27.9769249 236.774189 C-27.99708894 243.19444567 -27.99643215 249.61449357 -27.98189163 256.03476715 C-27.97980209 258.3881331 -27.98451302 260.74151667 -27.99661255 263.09485245 C-28.01209032 266.31445954 -28.00273917 269.53309871 -27.98735046 272.75268555 C-27.99763759 273.67800193 -28.00792472 274.60331832 -28.01852357 275.5566746 C-27.94056156 282.96804869 -26.25281958 289.84355685 -21.5280304 295.70492554 C-20.87705383 296.22055054 -20.22607727 296.73617554 -19.55537415 297.26742554 C-18.90697571 297.80367554 -18.25857727 298.33992554 -17.5905304 298.89242554 C-11.97803859 302.57137733 -6.98903401 302.55608108 -0.46792603 302.53485107 C0.55017853 302.53938219 1.56828309 302.5439133 2.6172393 302.54858172 C6.03329888 302.56125533 9.44919964 302.55960341 12.86528015 302.55795288 C15.31281744 302.56393635 17.76035284 302.57074148 20.20788574 302.57830811 C26.16962235 302.59415773 32.13129638 302.60041742 38.09304824 302.60153286 C42.94124739 302.60248384 47.78943352 302.60659662 52.63762856 302.61293411 C66.3918199 302.63054663 80.14598005 302.63977323 93.90018275 302.63827316 C95.01212471 302.6381533 95.01212471 302.6381533 96.14653015 302.63803101 C96.88873323 302.63794924 97.63093631 302.63786748 98.3956304 302.63778324 C110.41634999 302.63697084 122.43694412 302.65609683 134.45762744 302.68430774 C146.80887849 302.71306493 159.16006842 302.7268464 171.51135379 302.72512019 C178.44218004 302.72445715 185.37287485 302.72991102 192.30367088 302.75147629 C198.82489868 302.77163742 205.34589685 302.77098537 211.86715508 302.75644302 C214.25761063 302.75435325 216.64808352 302.75906581 219.03850937 302.77116394 C222.30841724 302.78663813 225.57737165 302.77729289 228.84725952 302.76190186 C230.25755661 302.77733254 230.25755661 302.77733254 231.69634455 302.79307497 C239.15089601 302.71583515 246.0457949 301.05756892 251.94462585 296.30258179 C252.46025085 295.65160522 252.97587585 295.00062866 253.50712585 294.32992554 C254.04337585 293.6815271 254.57962585 293.03312866 255.13212585 292.36508179 C257.75365007 288.36576786 258.75568179 284.86070062 258.76249695 280.09750366 C258.76945587 279.09296143 258.77641479 278.08841919 258.78358459 277.05343628 C258.78208908 275.44232971 258.78208908 275.44232971 258.78056335 273.79867554 C258.80084622 271.51351433 258.82169688 269.22835811 258.84306335 266.94320679 C258.8656926 263.34860008 258.88214735 259.75419014 258.88798523 256.15951538 C258.89749613 252.68470932 258.93124993 249.2107845 258.96806335 245.73617554 C258.96301788 244.66210449 258.95797241 243.58803345 258.95277405 242.48141479 C259.05127915 235.02075623 259.05127915 235.02075623 261.41581726 231.11312866 C263.5923774 229.19218602 264.6284251 228.29117421 267.53056335 228.21273804 C268.30657898 228.27203491 269.0825946 228.33133179 269.88212585 228.39242554 C271.03841492 228.45816772 271.03841492 228.45816772 272.21806335 228.52523804 C275.74393277 229.66843802 276.60510712 231.05723214 278.50712585 234.26742554 C279.12337456 238.21170208 279.09126865 242.12536922 279.0735321 246.11117554 C279.07973068 247.27185547 279.08592926 248.4325354 279.09231567 249.62838745 C279.09941633 252.0861833 279.09623565 254.54402721 279.08354187 257.00180054 C279.06977641 260.72668515 279.10362772 264.44900689 279.14189148 268.17367554 C279.19620351 284.41297286 278.7874034 296.97014964 266.81962585 309.11508179 C266.05650085 309.82535522 265.29337585 310.53562866 264.50712585 311.26742554 C263.54806335 312.16267944 263.54806335 312.16267944 262.56962585 313.07601929 C250.22596786 323.3881169 234.71886375 321.83358252 219.61991882 321.76913452 C217.09253133 321.77292141 214.56514591 321.77842449 212.0377655 321.7855072 C205.90779885 321.7979864 199.77809662 321.79192935 193.6481434 321.77683162 C186.49925128 321.75989987 179.35040975 321.76319069 172.20150377 321.7669257 C159.44151972 321.77279291 146.68163461 321.75867645 133.92167664 321.73397827 C121.55835768 321.71005076 109.19517084 321.7029794 96.83183289 321.71347046 C83.3446911 321.72489475 69.85761028 321.72679186 56.37046921 321.71237236 C54.93084407 321.71084663 53.49121893 321.70932628 52.05159378 321.70781136 C50.98930357 321.70667463 50.98930357 321.70667463 49.90555295 321.70551495 C44.92975649 321.70078458 39.9539874 321.70261461 34.97819138 321.70687675 C28.27546797 321.71233436 21.57295362 321.70150362 14.87025452 321.6799221 C12.41368856 321.67436804 9.95710503 321.67387622 7.50053787 321.67887497 C4.14135747 321.68485217 0.78272994 321.67227543 -2.57640076 321.65510559 C-3.54295157 321.66111564 -4.50950238 321.66712568 -5.5053426 321.67331785 C-18.22224983 321.55553156 -27.51099051 317.07507048 -36.74287415 308.51742554 C-45.75426721 299.0939807 -48.96289841 286.44291043 -48.8805542 273.72386169 C-48.88593974 272.71035768 -48.89132527 271.69685367 -48.89687401 270.65263742 C-48.9110957 267.28200111 -48.90406409 263.91176073 -48.89692688 260.54110718 C-48.90263344 258.11415798 -48.9095988 255.68721147 -48.91772461 253.26026917 C-48.933781 247.36771692 -48.93576321 241.47526325 -48.93051171 235.5827008 C-48.92645956 230.79040261 -48.92792592 225.99813585 -48.93325996 221.20583916 C-48.93400839 220.52208042 -48.93475681 219.83832168 -48.93552791 219.13384299 C-48.93705949 217.74450536 -48.93859783 216.35516775 -48.94014288 214.96583014 C-48.9538495 201.95674474 -48.94844304 188.94771959 -48.93695766 175.93863558 C-48.92702578 164.05470049 -48.9399684 152.1709211 -48.96389186 140.28701002 C-48.98831268 128.06328 -48.9978835 115.83962242 -48.99123913 103.61586851 C-48.98775371 96.76166373 -48.98993413 89.90757866 -49.00749016 83.05339241 C-49.02379644 76.6075967 -49.01898418 70.16202472 -49.00018501 63.71623421 C-48.99650404 61.35522518 -48.99959317 58.99419406 -49.0100708 56.63320541 C-49.0233155 53.40112147 -49.01170154 50.17001568 -48.99407959 46.93797302 C-49.0036846 46.0118803 -49.0132896 45.08578757 -49.02318567 44.13163143 C-48.88701689 31.92735328 -43.66509201 21.80676417 -35.39131165 13.04086304 C-25.09449645 3.32619993 -13.88608566 -0.04510053 0 0 Z " fill="#1F1F1F" transform="translate(229.4928741455078,292.7325744628906)"/>
<path d="M0 0 C11.63169583 8.16436189 19.48218885 20.20181278 22.375 34.1875 C22.76610491 38.17833179 22.79597234 42.11774409 22.75 46.125 C22.76160156 47.13240234 22.77320313 48.13980469 22.78515625 49.17773438 C22.72857518 63.84166129 17.41111978 77.7476319 7.23828125 88.484375 C-4.23209177 98.96882497 -19.30603215 103.78881736 -34.62109375 103.43359375 C-45.53886035 102.91688287 -56.37595072 98.55733252 -64.3125 90.9375 C-66.625 88.1875 -66.625 88.1875 -66.625 86.1875 C-67.285 86.1875 -67.945 86.1875 -68.625 86.1875 C-68.625 104.3375 -68.625 122.4875 -68.625 141.1875 C-75.225 141.1875 -81.825 141.1875 -88.625 141.1875 C-88.625 92.3475 -88.625 43.5075 -88.625 -6.8125 C-82.025 -6.8125 -75.425 -6.8125 -68.625 -6.8125 C-68.625 -2.1925 -68.625 2.4275 -68.625 7.1875 C-67.965 7.1875 -67.305 7.1875 -66.625 7.1875 C-66.39683594 6.61 -66.16867187 6.0325 -65.93359375 5.4375 C-62.11441982 -1.12919905 -53.12383939 -5.88198234 -46.05078125 -8.1953125 C-29.77300322 -11.12791105 -13.99559343 -8.91060702 0 0 Z " fill="#1D1D1D" transform="translate(1330.625,417.8125)"/>
<path d="M0 0 C1.04881348 -0.01474365 2.09762695 -0.0294873 3.17822266 -0.04467773 C16.70404491 0.13259525 30.46047342 6.08540943 40.3984375 15.328125 C52.13627738 28.59698747 57.40338116 43.83572425 56.55419922 61.52490234 C55.23231062 76.55553208 48.18608443 89.32800674 37.375 99.5625 C24.46229987 110.22951315 8.71316665 113.7352102 -7.625 112.5625 C-22.0303549 110.77805288 -34.40695082 103.90854181 -43.6875 92.875 C-54.77625218 78.52733974 -56.66265026 63.16646667 -55.4140625 45.59375 C-53.54587498 31.47855537 -45.02014859 19.13641279 -33.99609375 10.50390625 C-31.27752619 8.66382777 -28.53048642 7.08857404 -25.625 5.5625 C-24.73167969 5.05589844 -23.83835937 4.54929687 -22.91796875 4.02734375 C-15.37908534 0.40423914 -8.26913621 0.0769814 0 0 Z " fill="#1E1E1E" transform="translate(1506.625,408.4375)"/>
<path d="M0 0 C1.44789917 0.01522705 1.44789917 0.01522705 2.92504883 0.03076172 C18.4328334 0.36768874 30.52786357 5.21250894 41.83984375 15.96875 C53.89456521 28.66226866 57.64925002 43.20173745 57.40234375 60.17578125 C56.86933324 74.76329783 50.48256049 87.6331868 40.546875 98.15234375 C36.76136927 101.6264611 32.70036274 104.07647654 28.125 106.375 C27.36058594 106.76429688 26.59617187 107.15359375 25.80859375 107.5546875 C11.95724254 114.15515747 -4.2744819 114.4203326 -18.765625 109.62890625 C-33.33937202 103.75180475 -43.6680471 93.10930279 -50.875 79.375 C-51.91703883 76.29510297 -52.43633341 73.61016613 -52.875 70.375 C-53.205 70.045 -53.535 69.715 -53.875 69.375 C-55.41312411 52.02927762 -55.01345539 36.81797346 -44.5 22.4375 C-43.31569914 21.0622661 -42.10742398 19.70727923 -40.875 18.375 C-40.28074219 17.69050781 -39.68648437 17.00601562 -39.07421875 16.30078125 C-28.60841602 4.92490872 -15.22242228 -0.23240339 0 0 Z " fill="#1E1F1E" transform="translate(748.875,408.625)"/>
<path d="M0 0 C3.48316169 1.74158084 5.51499893 2.86607726 7.06835938 6.49780273 C8.29195074 11.09749303 8.98416202 15.70219383 9.65625 20.41015625 C9.80404907 21.41404892 9.95184814 22.41794159 10.10412598 23.45225525 C10.57453403 26.65494596 11.03745169 29.85866566 11.5 33.0625 C11.81068762 35.18952772 12.12188065 37.31648169 12.43359375 39.44335938 C12.5846759 40.47753494 12.73575806 41.51171051 12.89141846 42.57722473 C13.19092031 44.61852321 13.49292837 46.65945567 13.79754639 48.69999695 C14.41846288 52.87914057 15.02686886 57.04823189 15.46191406 61.2512207 C16.03543398 67.55536735 16.03543398 67.55536735 19.484375 72.59765625 C20.56203125 73.08105469 21.6396875 73.56445312 22.75 74.0625 C24.01903013 74.67803891 25.28720053 75.29535222 26.5546875 75.9140625 C27.25819336 76.23793945 27.96169922 76.56181641 28.68652344 76.89550781 C33.18632722 79.04378898 37.51244415 81.52605019 41.875 83.9375 C43.76359688 84.96877863 45.65291504 85.99873753 47.54296875 87.02734375 C48.45997559 87.52733887 49.37698242 88.02733398 50.32177734 88.54248047 C52.04729474 89.48152685 53.77408817 90.41823417 55.50244141 91.35205078 C57.73543224 92.55975937 59.96209443 93.77838666 62.1875 95 C62.84024902 95.34925537 63.49299805 95.69851074 64.16552734 96.05834961 C67.56646236 97.93998073 70.05567692 99.58709246 72 103 C72.58490372 106.92721068 72.34594305 108.48108543 70.125 111.8125 C67.10164941 114.92477267 67.10164941 114.92477267 64.13751221 115.12718201 C58.84766667 115.09821453 53.67480834 114.7710973 48.421875 114.16015625 C47.64741028 114.07374374 46.87294556 113.98733124 46.07501221 113.89830017 C44.45469147 113.71652569 42.83463452 113.53238518 41.21484375 113.34594727 C38.7427816 113.06166991 36.26994515 112.78512231 33.796875 112.50976562 C32.21349096 112.33117817 30.63015577 112.15215695 29.046875 111.97265625 C27.94675079 111.8491555 27.94675079 111.8491555 26.82440186 111.72315979 C23.17521546 111.30083422 19.58869756 110.78925023 16 110 C15.93006836 110.54076172 15.86013672 111.08152344 15.78808594 111.63867188 C14.21179334 123.73202921 12.44398626 135.77229184 10.35839844 147.7890625 C9.47896716 152.90130318 8.73714054 157.95715872 8.34204102 163.1315918 C7.78778314 166.15924029 6.15778557 167.90760187 4 170 C1.72751762 171.13624119 0.21697236 171.26446843 -2.3125 171.375 C-3.07175781 171.42398438 -3.83101563 171.47296875 -4.61328125 171.5234375 C-7.36195607 170.92061847 -8.88048096 169.87568133 -10.81666565 167.84863281 C-13.47029526 163.70307009 -13.74544436 158.54971685 -14.45703125 153.76953125 C-14.64972092 152.58276291 -14.84241058 151.39599457 -15.04093933 150.17326355 C-15.65055899 146.3891024 -16.23164249 142.60117133 -16.8125 138.8125 C-17.22147807 136.25035839 -17.63226473 133.68850476 -18.04492188 131.12695312 C-18.791906 126.45452829 -19.53269625 121.78132779 -20.25317383 117.10473633 C-20.39797684 116.16495438 -20.54277985 115.22517242 -20.69197083 114.25691223 C-21 112 -21 112 -21 110 C-21.57741943 110.08040527 -22.15483887 110.16081055 -22.74975586 110.24365234 C-29.49742175 111.18058684 -36.24746359 112.09883263 -43 113 C-43.83595703 113.11166504 -44.67191406 113.22333008 -45.53320312 113.33837891 C-68.71437509 116.38930141 -68.71437509 116.38930141 -74.1875 113.0625 C-76.2814874 109.52438336 -76.59413631 107.21833487 -76.6640625 103.18359375 C-75.37797538 98.95463668 -71.19893271 97.11359578 -67.53344727 95.02050781 C-66.21388082 94.32607074 -64.8913646 93.63721843 -63.56640625 92.953125 C-62.85201889 92.57822937 -62.13763153 92.20333374 -61.40159607 91.81707764 C-59.1245182 90.62296036 -56.84381343 89.43600244 -54.5625 88.25 C-51.58283889 86.69612367 -48.60514948 85.13853729 -45.62890625 83.578125 C-44.90321442 83.19853638 -44.17752258 82.81894775 -43.42984009 82.42785645 C-37.40197786 79.25617858 -31.50721517 75.88409285 -25.64038086 72.42480469 C-23 71 -23 71 -21 71 C-20.95101562 70.20078125 -20.90203125 69.4015625 -20.8515625 68.578125 C-20.77679688 67.47984375 -20.70203125 66.3815625 -20.625 65.25 C-20.55539062 64.18265625 -20.48578125 63.1153125 -20.4140625 62.015625 C-20.03744177 57.72226143 -19.27740245 53.50159774 -18.54833984 49.25634766 C-17.61347853 43.70462006 -16.81441184 38.13294977 -16 32.5625 C-15.50248235 29.17121757 -15.00398173 25.78027371 -14.4921875 22.39111328 C-14.15613757 20.07576929 -13.85013089 17.75591606 -13.5703125 15.43310547 C-13.42335938 14.2885791 -13.27640625 13.14405273 -13.125 11.96484375 C-12.94324219 10.42558228 -12.94324219 10.42558228 -12.7578125 8.85522461 C-11.84886891 5.43058051 -10.40864454 3.56691217 -8 1 C-5.13391871 -0.43304064 -3.18699217 -0.30644155 0 0 Z " fill="#1E1E1E" transform="translate(414,386)"/>
<path d="M0 0 C0.86367187 0.42410156 1.72734375 0.84820312 2.6171875 1.28515625 C14.84683184 7.95756099 22.99849919 18.3232467 27.375 31.4375 C29 39 29 39 29 58 C0.95 58 -27.1 58 -56 58 C-50.8879764 73.33607081 -48.87781943 78.95309798 -35.55078125 85.87109375 C-27.47061632 89.44715449 -15.97803764 89.48872338 -7.625 86.5625 C-0.98402122 83.43336085 4.94500585 78.08249122 9 72 C13.21654356 73.48635116 16.62478605 75.61249159 20.3125 78.125 C21.38113281 78.84945312 22.44976563 79.57390625 23.55078125 80.3203125 C24.35902344 80.87460937 25.16726563 81.42890625 26 82 C23.07445912 90.92129223 15.00427357 97.2561865 6.94775391 101.52612305 C-7.0013167 108.50065835 -22.78328758 110.74343419 -38 106.375 C-52.07543671 101.26640241 -63.54446041 93.20483629 -71 80 C-78.08010362 64.59252061 -79.8818708 46.17514471 -74 30 C-67.85490859 14.4976103 -56.51560814 4.47290781 -41.41015625 -2.08984375 C-29.25119443 -6.68147763 -11.49675037 -5.78441515 0 0 Z " fill="#202020" transform="translate(1196,413)"/>
<path d="M0 0 C6.93 0 13.86 0 21 0 C21.00410889 2.08795898 21.00821777 4.17591797 21.01245117 6.32714844 C21.0297399 13.26829666 21.07439238 20.20908147 21.13209057 27.15000534 C21.16620954 31.35349241 21.19144682 35.55662188 21.19555664 39.76025391 C21.19987233 43.82603839 21.22860163 47.89101825 21.27343178 51.9565506 C21.28630334 53.49842877 21.29075163 55.04040375 21.28615379 56.5823288 C21.26459581 66.01751888 21.78145134 74.77043397 27 83 C33.49871117 88.78847391 39.23260055 90.32705879 47.8046875 90.203125 C56.21668104 89.66837724 61.98586479 87.10609615 68.0859375 81.25390625 C73.71882331 74.62089582 75.08994565 66.95399854 75.20532227 58.46557617 C75.22526749 57.16460495 75.24521271 55.86363373 75.26576233 54.52323914 C75.28274289 53.1131502 75.29962183 51.70306004 75.31640625 50.29296875 C75.33699375 48.84279308 75.35799068 47.39262318 75.37937927 45.94245911 C75.43441455 42.13673585 75.48390511 38.33096011 75.53222656 34.52514648 C75.58257751 30.63715985 75.63819243 26.74924887 75.69335938 22.86132812 C75.80071395 15.24094786 75.90172189 7.62050372 76 0 C82.93 0 89.86 0 97 0 C97 35.31 97 70.62 97 107 C90.07 107 83.14 107 76 107 C75.67 103.37 75.34 99.74 75 96 C73.7625 97.216875 72.525 98.43375 71.25 99.6875 C60.85444765 108.99399449 48.61066917 110.72809016 35.19970703 110.17919922 C25.47582531 109.38704282 16.0671006 103.72489768 9.6875 96.5 C8.77906166 95.34312133 7.88212365 94.17706684 7 93 C5.9171875 91.6696875 5.9171875 91.6696875 4.8125 90.3125 C-0.78275586 80.08668756 -0.40624482 68.73792134 -0.29296875 57.421875 C-0.2873602 55.75751125 -0.28309607 54.09314248 -0.28010559 52.42877197 C-0.26875572 48.08866235 -0.23937587 43.74886311 -0.20599365 39.40887451 C-0.1750778 34.96403194 -0.16155469 30.51913829 -0.14648438 26.07421875 C-0.11449463 17.38265552 -0.06180975 8.69140236 0 0 Z " fill="#202020" transform="translate(822,411)"/>
<path d="M0 0 C1.02101807 0.00161133 2.04203613 0.00322266 3.09399414 0.00488281 C11.03145308 0.13348591 17.54249737 1.18647234 24.875 4.375 C25.60203125 4.65214844 26.3290625 4.92929687 27.078125 5.21484375 C35.600296 8.85521995 43.32850943 16.37944762 47.875 24.375 C47.921875 26.30859375 47.921875 26.30859375 46.875 28.375 C44.56889816 29.97265336 42.39403029 31.31030589 39.9375 32.625 C39.29103516 32.98851562 38.64457031 33.35203125 37.97851562 33.7265625 C33.18444549 36.375 33.18444549 36.375 30.875 36.375 C29.68359375 34.8359375 29.68359375 34.8359375 28.3125 32.75 C23.6683138 26.34579213 17.50285337 22.40172432 9.875 20.375 C-2.33230661 19.33762019 -12.11566816 20.05894447 -21.9375 28 C-27.97404898 33.69465594 -32.1158687 41.46810092 -32.3984375 49.83984375 C-32.6711987 60.25932143 -32.71856613 69.19222894 -27.125 78.375 C-26.7640625 78.98214844 -26.403125 79.58929688 -26.03125 80.21484375 C-21.56274348 86.48671183 -13.35651556 90.36931248 -6.125 92.375 C4.36148121 93.53268599 13.48491646 91.65747268 22.1875 85.625 C26.15626167 82.43362464 29.05378836 78.58544464 31.875 74.375 C35.91801175 75.86018799 39.48646256 77.80377998 43.1875 80 C44.79044922 80.94746094 44.79044922 80.94746094 46.42578125 81.9140625 C47.23402344 82.39617187 48.04226563 82.87828125 48.875 83.375 C48.01309229 90.82242132 42.16201397 96.67000368 36.55859375 101.28125 C34.38081986 102.76592368 32.17794823 104.09466055 29.875 105.375 C29.26398438 105.75140625 28.65296875 106.1278125 28.0234375 106.515625 C15.97256977 113.38718362 -0.01074919 114.16355168 -13.3125 111.25 C-28.35233295 106.88945783 -40.34911018 97.98420372 -48.26953125 84.4140625 C-55.54666065 70.62294836 -57.57664022 54.4313329 -53.125 39.375 C-47.90046849 23.68025354 -38.61314531 12.60348665 -23.9375 5 C-15.92417202 1.0755521 -8.81847154 -0.01439868 0 0 Z " fill="#1F1F1F" transform="translate(1060.125,408.625)"/>
<path d="M0 0 C0.91652344 -0.01224609 1.83304688 -0.02449219 2.77734375 -0.03710938 C14.16023888 -0.0614665 24.75336443 3.00282072 33.51953125 10.58203125 C35.66790104 12.73040104 37.74316756 14.90700859 39.75 17.1875 C38.19533803 21.27082902 35.49912156 23.26958993 32.125 25.9375 C31.12210938 26.73671875 30.11921875 27.5359375 29.0859375 28.359375 C28.31507813 28.96265625 27.54421875 29.5659375 26.75 30.1875 C26.2653125 29.80078125 25.780625 29.4140625 25.28125 29.015625 C17.64803737 23.08520595 10.77302498 19.06319361 0.9375 18.9375 C-0.26519531 18.91171875 -1.46789062 18.8859375 -2.70703125 18.859375 C-7.70803439 19.32253295 -10.95647044 20.9960912 -14.625 24.375 C-16.78366293 28.11114737 -17.06417141 30.97094914 -16.25 35.1875 C-13.45673023 40.53114651 -8.66283434 42.20097326 -3.25 44.1875 C1.55489784 45.45067173 6.43094251 46.3320266 11.31054688 47.25390625 C19.99073392 48.99339961 26.47945823 51.56692169 33.0625 57.625 C34.29419922 58.73681641 34.29419922 58.73681641 35.55078125 59.87109375 C42.17774509 66.85118177 42.19858587 74.05419375 42.0234375 83.19921875 C41.66939946 88.36311649 40.61960907 91.91306739 37.75 96.1875 C37.28722656 96.88230469 36.82445312 97.57710938 36.34765625 98.29296875 C30.64252933 105.72776741 21.52502744 110.3280296 12.34375 111.94140625 C-3.97334237 113.48956411 -18.28249397 111.38607347 -32.25 102.1875 C-35.87576935 99.18346699 -38.64215577 96.09926635 -41.25 92.1875 C-41.25 91.1975 -41.25 90.2075 -41.25 89.1875 C-39.11974265 87.32937717 -37.0260903 85.65856476 -34.75 84 C-34.12996094 83.53658203 -33.50992188 83.07316406 -32.87109375 82.59570312 C-31.33707119 81.4510863 -29.79433057 80.31817059 -28.25 79.1875 C-25.57991823 80.41596199 -24.09557734 81.34621218 -22 83.5 C-14.18167452 91.14063626 -6.94407579 92.46527535 3.71557617 92.50878906 C10.57746301 92.39228576 14.50638601 90.9242993 19.75 86.5 C21.33167363 82.84237972 21.74300048 79.06150847 20.75 75.1875 C17.31355228 70.90309765 14.12641804 69.23845555 8.9375 67.625 C7.9633313 67.31550415 7.9633313 67.31550415 6.96948242 66.99975586 C2.88021823 65.73161899 -1.23942141 64.68839042 -5.40893555 63.72216797 C-17.70535509 60.86005756 -27.88096916 56.93631191 -35.25 46.1875 C-39.46406194 39.24501151 -39.14045036 30.73127162 -37.88671875 22.92578125 C-35.66420959 15.47206007 -29.59416809 9.26188998 -23.1328125 5.25390625 C-15.01229422 1.11422884 -9.00430255 0.00622704 0 0 Z " fill="#1F1F1F" transform="translate(642.25,408.8125)"/>
<path d="M0 0 C5.13349203 3.70799341 8.64688997 7.77754542 11.42578125 13.45703125 C11.95816406 14.51019531 12.49054688 15.56335938 13.0390625 16.6484375 C14.82416882 20.88862992 14.83418201 24.84883533 14.73828125 29.39453125 C14.74150391 30.15443359 14.74472656 30.91433594 14.74804688 31.69726562 C14.65030204 42.10264788 11.48944361 50.50520943 4.7109375 58.47265625 C-2.11183748 65.1079131 -11.23417053 68.65076314 -20.69921875 69.01953125 C-30.71440971 68.51811194 -39.56592235 64.66984992 -46.57421875 57.45703125 C-48.8705614 54.25890597 -50.78451128 50.96016358 -52.57421875 47.45703125 C-52.93644531 46.82152344 -53.29867188 46.18601562 -53.671875 45.53125 C-57.31004157 37.16819178 -56.81437592 25.18869186 -54.13671875 16.64453125 C-49.83038721 6.43411264 -41.44961208 -0.71192444 -31.38671875 -4.85546875 C-20.25362452 -6.86307591 -9.81926942 -5.88560155 0 0 Z " fill="#FBFBFB" transform="translate(1317.57421875,433.54296875)"/>
<path d="M0 0 C7.81239208 4.99348772 13.54756296 10.94571146 17.2734375 19.453125 C17.82064453 20.56880859 17.82064453 20.56880859 18.37890625 21.70703125 C19.56687574 25.35394196 19.6152739 28.84533316 19.5859375 32.640625 C19.58029785 33.39730469 19.5746582 34.15398437 19.56884766 34.93359375 C19.33401197 45.79648802 16.03118019 54.11678562 8.6796875 62.20703125 C1.00578771 69.42846054 -9.3840475 71.90807118 -19.68359375 71.796875 C-27.96417746 70.86145604 -36.29641312 66.84399312 -41.7265625 60.453125 C-49.6705725 49.25244739 -52.82572187 38.10206475 -50.7265625 24.453125 C-47.66381023 13.61510635 -40.89827815 5.65509005 -31.3515625 0.015625 C-21.9383437 -4.3953431 -9.45056681 -4.58013818 0 0 Z " fill="#FBFBFB" transform="translate(1522.7265625,430.546875)"/>
<path d="M0 0 C8.24381552 5.52420627 14.40832804 13.31022373 17 23 C18.87661751 35.69223754 16.64602582 47.58441371 9 58 C2.70053707 65.09703441 -5.95240362 69.30323601 -15.41015625 70.23828125 C-24.6889681 70.497924 -33.85755447 68.19011946 -41 62 C-49.51810494 52.43171774 -53.8542161 41.72252977 -53.3125 28.83984375 C-52.19554018 18.68947141 -48.07910206 10.40827726 -40.30859375 3.6640625 C-28.38229034 -5.32528728 -13.49597043 -7.56186435 0 0 Z " fill="#FBFBFB" transform="translate(768,432)"/>
<path d="M0 0 C6.93 0 13.86 0 21 0 C21 9.57 21 19.14 21 29 C29.91 29 38.82 29 48 29 C48 34.94 48 40.88 48 47 C39.09 47 30.18 47 21 47 C21.04670684 54.67860452 21.09721287 62.35557248 21.18379211 70.03356934 C21.22304325 73.60963815 21.25548377 77.18546147 21.27099609 80.76171875 C21.2862298 84.21148889 21.32079137 87.66059053 21.36830902 91.11006165 C21.39019091 93.05516362 21.39246796 95.00045457 21.39434814 96.94567871 C21.51149278 104.07845881 22.09014372 108.96338114 26 115 C29.7370436 118.16931244 32.75049731 118.36151802 37.5625 118.25 C38.67753906 118.23453125 39.79257813 118.2190625 40.94140625 118.203125 C44.19003919 118.07837222 44.19003919 118.07837222 48 117 C48 123.27 48 129.54 48 136 C36.42783111 138.89304222 25.82494254 139.68529502 15 134 C7.16607092 128.84179623 2.93997628 122.19635855 0.60873413 113.23397827 C-0.52026881 107.23600509 -0.36569256 101.22479495 -0.29296875 95.14453125 C-0.28735858 93.74778199 -0.28309522 92.35102674 -0.28010559 90.95426941 C-0.26876832 87.31610191 -0.23940038 83.67830603 -0.20599365 80.0402832 C-0.17504972 76.31271387 -0.16154883 72.58508322 -0.14648438 68.85742188 C-0.11451704 61.57142727 -0.06184363 54.2858135 0 47 C-6.27 47 -12.54 47 -19 47 C-19 41.06 -19 35.12 -19 29 C-12.73 29 -6.46 29 0 29 C0 19.43 0 9.86 0 0 Z " fill="#1F1F1F" transform="translate(1585,382)"/>
<path d="M0 0 C6.93 0 13.86 0 21 0 C21 50.49 21 100.98 21 153 C14.07 153 7.14 153 0 153 C0 102.51 0 52.02 0 0 Z " fill="#1F201F" transform="translate(1413,365)"/>
<path d="M0 0 C0.495 0.495 0.495 0.495 1 1 C0.96159938 3.06477174 0.84339697 5.12826396 0.6875 7.1875 C0.60886719 8.31542969 0.53023437 9.44335938 0.44921875 10.60546875 C0.00565252 13.95728661 -0.82453877 16.83824917 -2 20 C-6 19 -6 19 -7.7890625 18.48828125 C-15.77060047 16.7255741 -22.86410541 17.53630149 -29.9453125 21.5859375 C-35.36102003 25.31309744 -38.99003409 31.85132244 -40.53916931 38.21476746 C-41.06389795 41.38619529 -41.16229291 44.41131305 -41.20532227 47.6262207 C-41.22017166 48.59291939 -41.22017166 48.59291939 -41.23532104 49.57914734 C-41.26673387 51.69465549 -41.29161279 53.81018605 -41.31640625 55.92578125 C-41.33699328 57.39837708 -41.3579902 58.87096724 -41.37937927 60.34355164 C-41.43441943 64.20845933 -41.48390786 68.07341874 -41.53222656 71.93841553 C-41.58257392 75.88672457 -41.63819072 79.83495903 -41.69335938 83.78320312 C-41.80071992 91.52207387 -41.90172608 99.26100756 -42 107 C-48.93 107 -55.86 107 -63 107 C-63 71.69 -63 36.38 -63 0 C-56.07 0 -49.14 0 -42 0 C-41.67 3.63 -41.34 7.26 -41 11 C-40.45472656 10.39671875 -39.90945313 9.7934375 -39.34765625 9.171875 C-28.27234896 -2.56605752 -15.38252108 -5.20578958 0 0 Z " fill="#212121" transform="translate(1003,411)"/>
<path d="M0 0 C0.92804947 -0.0071553 1.85609894 -0.01431061 2.81227112 -0.02168274 C3.83358627 -0.02437164 4.85490143 -0.02706055 5.90716553 -0.02983093 C6.98046616 -0.03640213 8.05376678 -0.04297333 9.15959167 -0.04974365 C12.72356225 -0.06950915 16.28749063 -0.08114661 19.85150146 -0.09111023 C21.06679283 -0.09518576 22.2820842 -0.09926128 23.53420258 -0.10346031 C29.96662731 -0.12433507 36.39903063 -0.13863063 42.83148193 -0.147995 C49.48077132 -0.15906141 56.12971803 -0.19346037 62.77890396 -0.23316669 C67.8867048 -0.25929415 72.9944255 -0.26768342 78.10228729 -0.27127647 C80.55350757 -0.27615254 83.00472404 -0.28779534 85.45587921 -0.30631447 C88.88652646 -0.3306223 92.31630255 -0.32975567 95.74700928 -0.32279968 C96.76022751 -0.33560974 97.77344574 -0.3484198 98.81736755 -0.36161804 C104.72306611 -0.31796124 108.10095656 0.19262721 112.58587646 4.14717102 C115.07746686 7.88455662 115.04380931 9.72048685 114.58587646 14.14717102 C112.38589663 17.6828529 110.40730407 19.58252327 106.58587646 21.14717102 C104.37691689 21.40723324 104.37691689 21.40723324 101.9312439 21.42132568 C101.0004451 21.43130081 100.0696463 21.44127594 99.11064148 21.45155334 C98.09651688 21.45221802 97.08239227 21.45288269 96.03753662 21.4535675 C94.96394394 21.46189102 93.89035126 21.47021454 92.78422546 21.47879028 C89.2310932 21.50290875 85.67814443 21.51166448 82.12493896 21.51826477 C79.65638167 21.5272292 77.18782495 21.53635101 74.7192688 21.54562378 C69.54262979 21.56212103 64.36605551 21.56981533 59.18939209 21.57270813 C52.55574294 21.57809465 45.92270194 21.6157837 39.28922462 21.66145229 C34.18998999 21.69119101 29.09090242 21.698431 23.99158859 21.69943428 C21.54594511 21.70364235 19.10030141 21.71609997 16.65474319 21.73695183 C13.23370846 21.76380036 9.81409158 21.75905915 6.39300537 21.74653625 C5.38292923 21.76137054 4.37285309 21.77620483 3.33216858 21.79148865 C-1.20710909 21.74416052 -4.40812648 21.65275596 -8.02706909 18.73471069 C-11.30164976 15.18510276 -11.8089325 13.05840315 -11.77349854 8.18623352 C-11.17089334 4.76710404 -9.04626287 3.2152805 -6.41412354 1.14717102 C-4.05491859 -0.03243145 -2.63134464 0.01390133 0 0 Z " fill="#848484" transform="translate(252.41412353515625,372.8528289794922)"/>
<path d="M0 0 C6.6 0 13.2 0 20 0 C20 35.31 20 70.62 20 107 C13.4 107 6.8 107 0 107 C0 71.69 0 36.38 0 0 Z " fill="#1A1A1A" transform="translate(1371,411)"/>
<path d="M0 0 C1.18567062 -0.0098568 1.18567062 -0.0098568 2.39529419 -0.01991272 C5.01776215 -0.03966323 7.64017277 -0.051313 10.26269531 -0.0612793 C11.15804237 -0.06535482 12.05338943 -0.06943035 12.97586823 -0.07362938 C17.71600617 -0.09449892 22.45611509 -0.10879605 27.19628906 -0.11816406 C32.09014457 -0.12922236 36.98354461 -0.16361294 41.87723923 -0.20333576 C45.64167113 -0.22949725 49.40599452 -0.23785554 53.17050934 -0.24144554 C54.97420574 -0.24631376 56.77789723 -0.2579345 58.58150482 -0.27648354 C61.1093894 -0.30086243 63.63609606 -0.2999124 66.1640625 -0.29296875 C66.90610931 -0.30577881 67.64815613 -0.31858887 68.41268921 -0.33178711 C73.5123451 -0.28085924 76.41816093 0.95513918 80.34082031 4.17700195 C81.94388955 7.38314043 81.82822492 10.69840192 81.34082031 14.17700195 C79.17807464 17.73008414 77.20828275 19.7167896 73.34082031 21.17700195 C70.70273342 21.38232629 68.16894659 21.48101302 65.53051758 21.48339844 C64.35662979 21.49588371 64.35662979 21.49588371 63.1590271 21.50862122 C60.57504283 21.53269388 57.99131102 21.54148919 55.40722656 21.5480957 C53.60888087 21.55706294 51.81053593 21.5661848 50.01219177 21.57545471 C46.24370511 21.59193898 42.47530725 21.59964401 38.70678711 21.60253906 C33.87999913 21.60792746 29.05404621 21.64562841 24.22749424 21.69128323 C20.51369685 21.72103477 16.80010121 21.72826217 13.08619499 21.72926521 C11.30678412 21.73347002 9.52737278 21.74591482 7.7480793 21.76678276 C5.25826764 21.79366353 2.77040062 21.78888326 0.28051758 21.77636719 C-0.81920631 21.79861862 -0.81920631 21.79861862 -1.94114685 21.82131958 C-5.88347078 21.76493337 -7.50574274 21.30317594 -10.59291077 18.76454163 C-13.49975896 15.12436442 -13.99493672 12.92277608 -13.95214844 8.21606445 C-13.49663002 5.04565628 -11.90602312 3.35776175 -9.65917969 1.17700195 C-6.59036768 -0.35740405 -3.36847593 0.01207436 0 0 Z " fill="#848484" transform="translate(254.6591796875,441.822998046875)"/>
<path d="M0 0 C1.19852097 -0.01929062 2.39704193 -0.03858124 3.63188171 -0.05845642 C9.12549599 -0.11609653 14.61895951 -0.16579701 20.11279297 -0.19628906 C23.0103814 -0.21407016 25.90699064 -0.24883393 28.80419922 -0.29882812 C32.30795503 -0.35921441 35.81080638 -0.38978968 39.31505775 -0.39946175 C41.29100818 -0.41212042 43.26670066 -0.454131 45.24223328 -0.49668884 C51.9151113 -0.48144202 56.30910531 -0.24167113 61.18281555 4.57017517 C63.17252003 7.52972105 62.90281687 9.80757852 62.28442383 13.20874023 C60.58623189 17.02967209 59.14818862 18.70490815 55.28442383 20.20874023 C52.48329163 20.48962402 52.48329163 20.48962402 49.21826172 20.53100586 C47.99341568 20.55022095 46.76856964 20.56943604 45.50660706 20.5892334 C44.18676315 20.59773315 42.86691925 20.60623291 41.50708008 20.61499023 C40.13471982 20.62650225 38.76235959 20.6380176 37.38999939 20.64953613 C34.51600656 20.67051501 31.64212497 20.68222781 28.76806641 20.68920898 C25.09113716 20.70018762 21.41568594 20.74827215 17.73922062 20.80515289 C14.90555049 20.84245596 12.07223527 20.85281914 9.23834038 20.85588074 C7.22578145 20.86485116 5.21341281 20.9021138 3.20118713 20.93981934 C-5.68855512 20.89636814 -5.68855512 20.89636814 -8.66346741 18.90455627 C-10.94107387 16.26502906 -12.40067452 13.65832239 -12.27807617 10.14624023 C-11.66398182 5.84757977 -10.79312227 4.19577027 -7.71557617 1.20874023 C-5.05360111 -0.1222473 -2.98097384 0.04472886 0 0 Z " fill="#828181" transform="translate(252.715576171875,510.791259765625)"/>
<path d="M0 0 C1.22396484 -0.01740234 1.22396484 -0.01740234 2.47265625 -0.03515625 C11.40293157 0.00784668 17.89492428 3.43187086 24.5 9.375 C26.875 12.5 26.875 12.5 28.5 15.375 C28.9125 16.035 29.325 16.695 29.75 17.375 C30.5 19.375 30.5 19.375 30.5 25.375 C10.04 25.375 -10.42 25.375 -31.5 25.375 C-29.98947708 16.31186247 -25.52496671 10.86191341 -18.72265625 4.8828125 C-12.50338442 0.66376342 -7.35417663 -0.10456175 0 0 Z " fill="#FAF9FA" transform="translate(1172.5,427.625)"/>
<path d="M0 0 C3.31601886 2.35947496 4.79668418 3.5509767 6.25 7.3125 C6.78256641 12.90444732 6.47883266 16.52492054 3.25 21.3125 C-0.65010913 24.96885231 -5.05334641 24.81208577 -10.15234375 24.66796875 C-13.7079584 24.18141096 -15.42317746 23.0146165 -17.75 20.3125 C-20.42377616 15.82437573 -20.54557112 11.40736963 -19.75 6.3125 C-18.10933484 3.10960786 -15.7741932 1.06357501 -12.875 -1.0625 C-8.21730178 -2.43241124 -4.28521138 -2.23773195 0 0 Z " fill="#1F1F1F" transform="translate(1387.75,366.6875)"/>
<path d="M0 0 C0.33 0.99 0.66 1.98 1 3 C1.66 3 2.32 3 3 3 C3 10.92 3 18.84 3 27 C2.34 27 1.68 27 1 27 C0.67 18.09 0.34 9.18 0 0 Z " fill="#252524" transform="translate(1350,449)"/>
<path d="M0 0 C1.71413086 0.02707031 1.71413086 0.02707031 3.46289062 0.0546875 C6.24701047 0.10128365 9.02927889 0.16667962 11.8125 0.25 C11.8125 0.58 11.8125 0.91 11.8125 1.25 C2.78832223 1.94037426 -6.13111322 2.40178302 -15.1875 2.25 C-15.1875 2.91 -15.1875 3.57 -15.1875 4.25 C-17.4975 4.91 -19.8075 5.57 -22.1875 6.25 C-22.8475 5.59 -23.5075 4.93 -24.1875 4.25 C-15.95243495 0.57801172 -8.95678099 -0.27284863 0 0 Z " fill="#313131" transform="translate(1507.1875,408.75)"/>
<path d="M0 0 C0.66 0.33 1.32 0.66 2 1 C0.35446591 2.69393215 -1.30419392 4.35732623 -3 6 C-3.50402344 6.48855469 -4.00804687 6.97710937 -4.52734375 7.48046875 C-6.0625 8.875 -6.0625 8.875 -9 11 C-11.18359375 10.6328125 -11.18359375 10.6328125 -13 10 C-11.3970551 8.70681744 -9.79259858 7.41550844 -8.1875 6.125 C-7.29417969 5.40570313 -6.40085937 4.68640625 -5.48046875 3.9453125 C-3 2 -3 2 0 0 Z " fill="#2C2D2C" transform="translate(1033,415)"/>
<path d="M0 0 C0.99 0.33 1.98 0.66 3 1 C0.63707344 3.52588702 -0.66462511 4.88820837 -4 6 C-4.7425 7.2375 -4.7425 7.2375 -5.5 8.5 C-7 11 -7 11 -10 12 C-8.65263662 9.06559801 -7.11433035 6.74926573 -5 4.3125 C-4.484375 3.71050781 -3.96875 3.10851562 -3.4375 2.48828125 C-2 1 -2 1 0 0 Z " fill="#2A2A2A" transform="translate(1139,420)"/>
<path d="M0 0 C0.33 0 0.66 0 1 0 C1.38133299 1.9914056 1.71325582 3.99279077 2 6 C1.67 6.33 1.34 6.66 1 7 C1.020625 8.051875 1.04125 9.10375 1.0625 10.1875 C1.0011347 13.93078349 0.35021745 16.54006778 -1 20 C-1.33 20 -1.66 20 -2 20 C-2.26404456 13.13484138 -1.25841946 6.74153283 0 0 Z " fill="#4B4C4C" transform="translate(400,405)"/>
<path d="M0 0 C-1.98 0.33 -3.96 0.66 -6 1 C-6 1.66 -6 2.32 -6 3 C-8.31 3.66 -10.62 4.32 -13 5 C-13.66 4.34 -14.32 3.68 -15 3 C-13.25531628 2.29911844 -11.50398839 1.61475991 -9.75 0.9375 C-8.77546875 0.55464844 -7.8009375 0.17179687 -6.796875 -0.22265625 C-3.95992605 -1.01113787 -2.70590448 -1.02437812 0 0 Z " fill="#464746" transform="translate(1498,410)"/>
<path d="M0 0 C0.33 0 0.66 0 1 0 C1.19493195 2.27020744 1.38070418 4.54120289 1.5625 6.8125 C1.66691406 8.07707031 1.77132813 9.34164063 1.87890625 10.64453125 C2 14 2 14 1 17 C0.34 17 -0.32 17 -1 17 C-0.67 11.39 -0.34 5.78 0 0 Z " fill="#414141" transform="translate(1542,459)"/>
<path d="M0 0 C0.33 0.99 0.66 1.98 1 3 C-0.14453125 4.82421875 -0.14453125 4.82421875 -1.8125 6.6875 C-2.35519531 7.31011719 -2.89789062 7.93273437 -3.45703125 8.57421875 C-5 10 -5 10 -7 10 C-5.33248852 6.05860922 -2.77289351 3.2107188 0 0 Z " fill="#29292A" transform="translate(893,488)"/>
<path d="M0 0 C0.33 0 0.66 0 1 0 C1.19436491 2.45796853 1.3807742 4.91609294 1.5625 7.375 C1.61857422 8.07367188 1.67464844 8.77234375 1.73242188 9.4921875 C2.11328125 14.7734375 2.11328125 14.7734375 1 17 C0.34 17 -0.32 17 -1 17 C-0.67 11.39 -0.34 5.78 0 0 Z " fill="#60605F" transform="translate(1332,459)"/>
<path d="M0 0 C0.99 0.66 1.98 1.32 3 2 C1.5903653 2.70180531 0.17192359 3.38593958 -1.25 4.0625 C-2.03890625 4.44535156 -2.8278125 4.82820313 -3.640625 5.22265625 C-6 6 -6 6 -10 5 C-6.7 3.35 -3.4 1.7 0 0 Z " fill="#2B2C2B" transform="translate(375,466)"/>
<path d="M0 0 C0.33 0.66 0.66 1.32 1 2 C-1.64 2 -4.28 2 -7 2 C-7.33 2.99 -7.66 3.98 -8 5 C-8.66 4.34 -9.32 3.68 -10 3 C-6.68152292 -0.06320961 -4.44849969 -0.3033068 0 0 Z " fill="#363637" transform="translate(501,521)"/>
<path d="M0 0 C-1 3 -1 3 -3.3125 4.25 C-6.16597407 5.04631835 -7.24802325 4.8214856 -10 4 C-8.71086513 3.32845067 -7.41859796 2.66291141 -6.125 2 C-5.40570313 1.62875 -4.68640625 1.2575 -3.9453125 0.875 C-2 0 -2 0 0 0 Z " fill="#313232" transform="translate(358,476)"/>
<path d="M0 0 C-0.99 0 -1.98 0 -3 0 C-3 0.66 -3 1.32 -3 2 C-4.98 2.66 -6.96 3.32 -9 4 C-9.66 3.34 -10.32 2.68 -11 2 C-3.57142857 -1.57142857 -3.57142857 -1.57142857 0 0 Z " fill="#434444" transform="translate(1288,411)"/>
<path d="M0 0 C0.99 0.33 1.98 0.66 3 1 C1.37660195 2.70884005 -0.29319053 4.37446717 -2 6 C-2.66 6 -3.32 6 -4 6 C-2.84826645 3.53199953 -1.95216435 1.95216435 0 0 Z " fill="#262727" transform="translate(1324,489)"/>
</svg>
